<svg width="1477" height="323" xmlns="http://www.w3.org/2000/svg" xmlns:xlink="http://www.w3.org/1999/xlink" xml:space="preserve" overflow="hidden"><defs><clipPath id="clip0"><rect x="1326" y="635" width="1477" height="323"/></clipPath></defs><g clip-path="url(#clip0)" transform="translate(-1326 -635)"><path d="M1398 745C1398 684.249 1447.25 635 1508 635 1568.75 635 1618 684.249 1618 745 1618 805.751 1568.75 855 1508 855 1447.25 855 1398 805.751 1398 745Z" fill="#6A0202" fill-rule="evenodd"/><path d="M1326 848C1326 787.249 1375.25 738 1436 738 1496.75 738 1546 787.249 1546 848 1546 908.751 1496.75 958 1436 958 1375.25 958 1326 908.751 1326 848Z" fill="#C00000" fill-rule="evenodd" fill-opacity="0.8"/><path d="M1472 848C1472 787.249 1521.25 738 1582 738 1642.75 738 1692 787.249 1692 848 1692 908.751 1642.75 958 1582 958 1521.25 958 1472 908.751 1472 848Z" fill="#FF0000" fill-rule="evenodd" fill-opacity="0.698039"/><text font-family="Segoe UI Semibold,Segoe UI Semibold_MSFontService,sans-serif" font-weight="600" font-size="110" transform="matrix(1 0 0 1 1714.24 778)">The AMA App</text><text font-family="Segoe UI Semibold,Segoe UI Semibold_MSFontService,sans-serif" font-weight="600" font-size="48" transform="matrix(1 0 0 1 1724.83 875)">amplifying medical assistance</text></g></svg>